<svg xmlns="http://www.w3.org/2000/svg" xmlns:xlink="http://www.w3.org/1999/xlink" width="500" zoomAndPan="magnify" viewBox="0 0 375 374.999991" height="500" preserveAspectRatio="xMidYMid meet" version="1.0"><defs><clipPath id="70cc07542e"><path d="M 15.28125 9 L 359 9 L 359 366.839844 L 15.28125 366.839844 Z M 15.28125 9 " clip-rule="nonzero"/></clipPath></defs><g clip-path="url(#70cc07542e)"><path fill="#000000" d="M 358.742188 256.925781 L 259.859375 10.84375 C 258.886719 8.414062 255.453125 8.414062 254.476562 10.84375 L 218.863281 99.425781 C 218.585938 100.117188 218.582031 100.898438 218.859375 101.589844 L 281.914062 259.082031 C 282.355469 260.1875 283.421875 260.90625 284.605469 260.90625 L 356.050781 260.914062 C 358.105469 260.914062 359.511719 258.835938 358.742188 256.925781 Z M 120.339844 10.84375 L 225.703125 273.5625 C 225.984375 274.257812 225.984375 275.03125 225.699219 275.730469 L 190.078125 364.339844 C 189.097656 366.769531 185.664062 366.769531 184.691406 364.339844 L 120.328125 204.175781 C 119.355469 201.746094 115.917969 201.746094 114.941406 204.171875 L 92.867188 259.070312 C 92.425781 260.171875 91.359375 260.894531 90.171875 260.894531 L 18.726562 260.886719 C 16.671875 260.886719 15.269531 258.808594 16.035156 256.898438 L 114.953125 10.839844 C 115.929688 8.414062 119.363281 8.414062 120.339844 10.84375 " fill-opacity="1" fill-rule="nonzero"/></g></svg>